<svg width="16" height="16" viewBox="0 0 16 16"
    xmlns="http://www.w3.org/2000/svg">
    <path clip-rule="evenodd" d="M9.4375 8.125V9.06417L6.625 11.7412V14.875H4.375V11.7412L1.5625 9.06417V8.125H9.4375ZM4.9375 11.5V14.3125H6.0625V11.5L8.875 8.823V8.6875H2.125V8.823L4.9375 11.5Z" fill="currentColors"/>
    <path d="M11.58 6.50004C11.58 5.30657 11.1059 4.16195 10.262 3.31803C9.41805 2.47412 8.27343 2.00004 7.07996 2.00004C5.88648 2.00004 4.74198 2.47412 3.89807 3.31803C3.05416 4.16195 2.57996 5.30657 2.57996 6.50004V6.62003C2.24237 6.81114 1.92716 7.03926 1.64001 7.30009C1.59979 7.03532 1.57968 6.76784 1.57996 6.50004C1.581 5.61009 1.79798 4.73372 2.21228 3.94608C2.62658 3.15845 3.22587 2.48314 3.95862 1.97807C4.69137 1.473 5.53568 1.15322 6.41919 1.0463C7.3027 0.939388 8.19905 1.04847 9.03113 1.36418C9.8632 1.67988 10.6062 2.19273 11.1964 2.8588C11.7866 3.52488 12.2064 4.32426 12.4197 5.18827C12.633 6.05229 12.6335 6.95515 12.421 7.81938C12.2086 8.6836 11.7895 9.48341 11.2 10.1501L15 13.84L14.25 14.5L10.47 10.83C10.32 10.95 10.16 11.0601 10 11.1701V11C10.0031 10.6641 9.96962 10.3287 9.90002 10C10.4246 9.58001 10.848 9.04731 11.1388 8.44145C11.4296 7.83558 11.5804 7.17208 11.58 6.50004V6.50004Z" fill="currentColors"/>
</svg>